Coordinates
version=1
nRows=24
nColumns=38
inDegrees=no

Units are S.I. units (second, meters, Newtons, ...)
If the header above contains a line with 'inDegrees', this indicates whether rotational values are in degrees (yes) or radians (no).

endheader
time	pelvis_tilt	pelvis_list	pelvis_rotation	pelvis_tx	pelvis_ty	pelvis_tz	hip_flexion_r	hip_adduction_r	hip_rotation_r	knee_angle_r	ankle_angle_r	subtalar_angle_r	mtp_angle_r	hip_flexion_l	hip_adduction_l	hip_rotation_l	knee_angle_l	ankle_angle_l	subtalar_angle_l	mtp_angle_l	lumbar_extension	lumbar_bending	lumbar_rotation	arm_flex_r	arm_add_r	arm_rot_r	elbow_flex_r	pro_sup_r	wrist_flex_r	wrist_dev_r	arm_flex_l	arm_add_l	arm_rot_l	elbow_flex_l	pro_sup_l	wrist_flex_l	wrist_dev_l
0	0.542601	1.45206	1.19469	0.637464	-0.692119	1.00639	0.635245	-0.0201311	-0.1433	0.680316	0.08653	0	0	-0.0787964	-0.198182	-0.220125	0.660639	0.0609376	0	0	0.104438	0.156165	-0.244872	-0.15785	-0.263157	1.01847	0.268235	0.807444	0	0	0.0395639	-0.360446	0.399441	0.621339	1.43028	0	0
0.01	0.567298	1.44873	1.16286	0.639692	-0.680033	1.00714	0.634591	-0.0113122	-0.143854	0.689349	0.0793195	0	0	-0.0657127	-0.203806	-0.207214	0.697823	0.0454677	0	0	0.104282	0.164536	-0.237212	-0.150129	-0.266115	1.02755	0.267906	0.799071	0	0	0.0307323	-0.34901	0.391312	0.606932	1.41902	0	0
0.02	0.59638	1.44453	1.12521	0.641927	-0.667226	1.00798	0.632943	-0.00150978	-0.147667	0.699536	0.0735592	0	0	-0.0511551	-0.210875	-0.198883	0.736093	0.0239403	0	0	0.105881	0.173803	-0.226548	-0.144801	-0.270449	1.03496	0.269107	0.791767	0	0	0.0210651	-0.336131	0.383837	0.591273	1.40548	0	0
0.03	0.626228	1.44068	1.08673	0.644131	-0.654441	1.00894	0.629462	0.00856559	-0.151381	0.710659	0.0710815	0	0	-0.0344586	-0.217369	-0.189246	0.776135	-0.00287676	0	0	0.106412	0.183089	-0.214116	-0.139526	-0.275662	1.04158	0.271814	0.786252	0	0	0.0124058	-0.323402	0.378542	0.575386	1.39098	0	0
0.04	0.658654	1.43638	1.04597	0.646384	-0.641816	1.00991	0.624152	0.0195385	-0.154488	0.720127	0.0722528	0	0	-0.0146279	-0.22416	-0.177938	0.818289	-0.0363807	0	0	0.106678	0.192807	-0.200547	-0.134073	-0.28185	1.04787	0.276298	0.781452	0	0	0.00449524	-0.31161	0.376702	0.560178	1.37489	0	0
0.05	0.693333	1.43166	1.00357	0.648703	-0.629459	1.01083	0.616841	0.0309022	-0.15899	0.725675	0.0737695	0	0	0.00791117	-0.231004	-0.163537	0.862605	-0.0662822	0	0	0.106007	0.202716	-0.186851	-0.127606	-0.288178	1.05247	0.281314	0.780026	0	0	-0.00339778	-0.301142	0.37582	0.547325	1.36172	0	0
0.06	0.725549	1.42597	0.963894	0.65107	-0.617349	1.01155	0.608954	0.0426759	-0.164967	0.727917	0.0751117	0	0	0.0334432	-0.237765	-0.14699	0.908909	-0.0940307	0	0	0.106686	0.211255	-0.17127	-0.121723	-0.293925	1.05753	0.286423	0.781987	0	0	-0.0104181	-0.292283	0.378899	0.536358	1.35004	0	0
0.07	0.751422	1.42088	0.932075	0.653269	-0.605533	1.0123	0.59953	0.0528115	-0.172639	0.727766	0.0774349	0	0	0.0606286	-0.241879	-0.125471	0.9563	-0.115797	0	0	0.106163	0.219588	-0.158872	-0.113552	-0.301218	1.06217	0.293277	0.786587	0	0	-0.0172795	-0.28387	0.382485	0.52502	1.34099	0	0
0.08	0.77206	1.41714	0.906764	0.655377	-0.594025	1.01308	0.588521	0.0614176	-0.179793	0.727023	0.0821404	0	0	0.0887115	-0.243152	-0.100569	1.004	-0.135913	0	0	0.104575	0.225953	-0.148058	-0.103936	-0.308548	1.06568	0.300527	0.792284	0	0	-0.0238095	-0.276378	0.386475	0.513975	1.33476	0	0
0.09	0.79021	1.41543	0.884973	0.65729	-0.582797	1.01402	0.575362	0.0684896	-0.184582	0.726114	0.0894506	0	0	0.11645	-0.241365	-0.074155	1.05042	-0.157055	0	0	0.101204	0.230444	-0.138448	-0.0929316	-0.316009	1.06747	0.307807	0.798375	0	0	-0.029367	-0.269063	0.390953	0.502182	1.32971	0	0
0.1	0.808837	1.41623	0.862246	0.659096	-0.571813	1.01521	0.559854	0.0748254	-0.185107	0.72502	0.0969329	0	0	0.141964	-0.237342	-0.0505986	1.09362	-0.17538	0	0	0.094793	0.233168	-0.128499	-0.0801563	-0.323091	1.06836	0.31384	0.803264	0	0	-0.0341557	-0.261831	0.394986	0.489949	1.32665	0	0
0.11	0.829015	1.41886	0.837381	0.660798	-0.56111	1.01671	0.542477	0.081022	-0.181814	0.722877	0.104891	0	0	0.16549	-0.231459	-0.0296232	1.13303	-0.189972	0	0	0.0859838	0.234871	-0.117726	-0.0662081	-0.330472	1.06782	0.319646	0.807759	0	0	-0.0369704	-0.253837	0.400095	0.475073	1.32473	0	0
0.12	0.847094	1.42222	0.814514	0.662413	-0.550511	1.01835	0.524451	0.0865702	-0.177304	0.719786	0.11225	0	0	0.187771	-0.224263	-0.0114193	1.16838	-0.194976	0	0	0.076867	0.235291	-0.106524	-0.0519038	-0.337259	1.06609	0.323829	0.811194	0	0	-0.0387356	-0.245671	0.406724	0.458889	1.32507	0	0
0.13	0.861617	1.42596	0.794676	0.664045	-0.539975	1.02008	0.506412	0.0915229	-0.172471	0.71589	0.119483	0	0	0.208878	-0.216728	0.00258629	1.20035	-0.187696	0	0	0.068258	0.234625	-0.0938863	-0.0383897	-0.34394	1.06143	0.327492	0.814304	0	0	-0.0392335	-0.237412	0.415976	0.440613	1.32741	0	0
0.14	0.870143	1.42955	0.78011	0.665698	-0.529505	1.02175	0.488912	0.0960048	-0.167197	0.711259	0.126454	0	0	0.230302	-0.209651	0.0110312	1.23009	-0.168488	0	0	0.0608529	0.233102	-0.0793111	-0.0261071	-0.350857	1.0542	0.331036	0.817635	0	0	-0.0384774	-0.229027	0.427956	0.420677	1.33197	0	0
0.15	0.878183	1.43339	0.766607	0.667198	-0.519161	1.02341	0.47072	0.0996362	-0.161716	0.705658	0.133216	0	0	0.251985	-0.203019	0.0154121	1.25749	-0.141974	0	0	0.0535473	0.230972	-0.0632171	-0.0150366	-0.357794	1.0438	0.333874	0.822273	0	0	-0.0361502	-0.221162	0.444083	0.400401	1.33913	0	0
0.16	0.88651	1.43751	0.752563	0.66869	-0.508821	1.02499	0.451508	0.103145	-0.154921	0.699104	0.140215	0	0	0.27343	-0.197656	0.0148309	1.28174	-0.115629	0	0	0.0444953	0.228076	-0.0423457	-0.00671527	-0.365698	1.02657	0.338501	0.828605	0	0	-0.0318243	-0.214809	0.465087	0.382776	1.34968	0	0
0.17	0.885355	1.44169	0.749274	0.670149	-0.498484	1.02657	0.432436	0.10475	-0.150014	0.691851	0.146407	0	0	0.296248	-0.191344	0.0138043	1.30223	-0.0978348	0	0	0.0396937	0.223363	-0.0311411	0.00598286	-0.371911	1.01979	0.339854	0.834609	0	0	-0.0335671	-0.209745	0.479067	0.367725	1.35811	0	0
0.18	0.876418	1.44588	0.754661	0.671591	-0.488195	1.02812	0.41347	0.104941	-0.146479	0.68366	0.152964	0	0	0.320208	-0.184696	0.0122018	1.31885	-0.0827716	0	0	0.0382444	0.217358	-0.0248436	0.0204622	-0.376746	1.01772	0.338986	0.840748	0	0	-0.0379986	-0.205544	0.490779	0.353023	1.36641	0	0
0.19	0.864964	1.45006	0.760675	0.673169	-0.478131	1.0296	0.394621	0.105683	-0.140468	0.674511	0.159563	0	0	0.343919	-0.179568	0.00717221	1.33159	-0.0687942	0	0	0.0348785	0.211138	-0.0142202	0.0347372	-0.382346	1.01533	0.338958	0.845922	0	0	-0.0408413	-0.201541	0.501879	0.339916	1.37492	0	0
0.2	0.847452	1.4542	0.771831	0.674745	-0.468075	1.03099	0.376418	0.105844	-0.134899	0.665495	0.164595	0	0	0.367067	-0.17519	0.000279665	1.33958	-0.0576044	0	0	0.0321427	0.204308	-0.00356388	0.0492382	-0.388437	1.01279	0.339893	0.849163	0	0	-0.0448508	-0.197726	0.509963	0.328363	1.38123	0	0
0.21	0.82992	1.4582	0.782218	0.676374	-0.458014	1.03234	0.357373	0.106364	-0.128949	0.653974	0.170213	0	0	0.389455	-0.173457	-0.0108613	1.34351	-0.0452833	0	0	0.0296307	0.197523	0.00795443	0.0630495	-0.395134	1.00703	0.34232	0.851263	0	0	-0.0482666	-0.193508	0.518187	0.315375	1.38784	0	0
0.22	0.816466	1.46216	0.787999	0.678014	-0.447907	1.03365	0.33763	0.107098	-0.124259	0.641619	0.174592	0	0	0.410204	-0.173797	-0.0239753	1.34264	-0.0355138	0	0	0.027043	0.190993	0.0196025	0.0763425	-0.402332	0.999908	0.345978	0.852138	0	0	-0.0524584	-0.189653	0.524369	0.303753	1.39277	0	0
0.23	0.811293	1.46685	0.785005	0.679635	-0.437768	1.03502	0.316085	0.107753	-0.119778	0.628095	0.178291	0	0	0.428347	-0.175958	-0.0398514	1.33706	-0.0277105	0	0	0.0233366	0.184669	0.0312416	0.0894592	-0.410163	0.99189	0.351118	0.85219	0	0	-0.0571617	-0.185977	0.528604	0.293267	1.39546	0	0
